<svg width="12" height="10" viewBox="0 0 12 10" fill="none" xmlns="http://www.w3.org/2000/svg">
<path d="M0.25057 1.23022C1.89752 2.62501 4.78741 5.07887 5.63679 5.84398C5.75081 5.94725 5.87311 5.99975 6.00007 5.99975C6.12677 5.99975 6.24886 5.94774 6.36262 5.84497C7.21272 5.0791 10.1026 2.62501 11.7496 1.23022C11.8521 1.14355 11.8678 0.991203 11.7847 0.885242C11.5928 0.640391 11.3067 0.5 11.0001 0.5H1.00008C0.693445 0.5 0.407296 0.640391 0.215414 0.885266C0.132398 0.991203 0.148031 1.14355 0.25057 1.23022Z" fill="white"/>
<path d="M11.855 1.98608C11.7664 1.94483 11.6621 1.95922 11.5884 2.02222C9.76195 3.57054 7.43091 5.55518 6.6975 6.21605C6.28587 6.58763 5.71458 6.58763 5.30198 6.21556C4.52025 5.51122 1.90256 3.28587 0.411609 2.02219C0.337383 1.95919 0.232898 1.94529 0.145008 1.98605C0.0566484 2.02709 0 2.11547 0 2.21288V8.49999C0 9.05152 0.448477 9.5 1.00001 9.5H11C11.5515 9.5 12 9.05152 12 8.49999V2.21288C12 2.11547 11.9434 2.02686 11.855 1.98608Z" fill="white"/>
</svg>
