<svg width="12" height="14" viewBox="0 0 12 14" fill="none" xmlns="http://www.w3.org/2000/svg">
<path d="M2.74879 3.37951C4.52044 1.77694 7.1718 1.75243 8.96797 3.21533L7.54427 3.26924C7.36049 3.2766 7.21836 3.42852 7.22571 3.6123C7.23306 3.79118 7.38009 3.93086 7.55652 3.93086C7.56142 3.93086 7.56387 3.93086 7.56877 3.93086L9.75455 3.84999C9.93343 3.84264 10.0731 3.69807 10.0731 3.51919V3.49468C10.0731 3.48978 10.0731 3.48733 10.0731 3.48243V3.47998L9.99224 1.31871C9.98489 1.13492 9.83051 0.992799 9.64918 1.00015C9.4654 1.0075 9.32328 1.15943 9.33063 1.34321L9.38209 2.69829C8.49258 1.97052 7.39724 1.54905 6.22594 1.49024C4.77529 1.41672 3.381 1.91416 2.30526 2.88943C0.825204 4.22981 0.197895 6.26856 0.668377 8.2093C0.705133 8.36123 0.839906 8.46169 0.989382 8.46169C1.01634 8.46169 1.04084 8.45924 1.0678 8.45189C1.24423 8.40778 1.3545 8.2289 1.31039 8.05247C0.898717 6.34698 1.44761 4.55572 2.74879 3.37951Z" fill="white" stroke="white"/>
<path d="M11.3326 5.79083C11.2885 5.6144 11.1096 5.50413 10.9332 5.54824C10.7567 5.59235 10.6465 5.77123 10.6906 5.94766C11.1047 7.65315 10.5534 9.4444 9.25218 10.6206C8.33817 11.4464 7.19137 11.8532 6.04947 11.8532C4.95903 11.8532 3.87105 11.4832 2.99379 10.7529L4.43464 10.6231C4.61598 10.6059 4.75075 10.4466 4.7336 10.2628C4.71644 10.0791 4.55716 9.94674 4.37338 9.96389L2.19496 10.1599C2.01362 10.1771 1.87885 10.3364 1.896 10.5201L2.09204 12.6986C2.10674 12.8701 2.25131 13 2.42039 13C2.4302 13 2.44 13 2.4498 12.9975C2.63113 12.9804 2.7659 12.8211 2.74875 12.6373L2.63113 11.3116C3.52064 12.032 4.61107 12.4511 5.77503 12.5099C5.86814 12.5148 5.96126 12.5172 6.05192 12.5172C7.40211 12.5172 8.68613 12.0222 9.69571 11.1107C11.1758 9.77031 11.8031 7.73401 11.3326 5.79083Z" fill="white" stroke="white"/>
</svg>
