<svg width="8" height="12" viewBox="0 0 8 12" fill="none" xmlns="http://www.w3.org/2000/svg">
<path d="M2.84456 6.00254L7.33373 1.51317C7.45734 1.38985 7.52534 1.22498 7.52534 1.04917C7.52534 0.873268 7.45734 0.708488 7.33373 0.584976L6.94037 0.191805C6.81695 0.0680976 6.65198 0 6.47617 0C6.30037 0 6.13559 0.0680976 6.01208 0.191805L0.667003 5.53678C0.543003 5.66068 0.475101 5.82624 0.475589 6.00224C0.475101 6.17902 0.542906 6.34439 0.667003 6.46839L6.0071 11.8082C6.13061 11.9319 6.29539 12 6.4713 12C6.6471 12 6.81188 11.9319 6.93549 11.8082L7.32876 11.415C7.58466 11.1591 7.58466 10.7425 7.32876 10.4867L2.84456 6.00254Z" fill="#650107" fill-opacity="0.2"/>
</svg>
