<svg width="99" height="19" viewBox="0 0 99 19" fill="none" xmlns="http://www.w3.org/2000/svg">
<path d="M15.9336 14.7227C15.9336 15.0117 15.8984 15.3164 15.8281 15.6367C15.7656 15.957 15.6602 16.2773 15.5117 16.5977C15.3711 16.9102 15.1875 17.2109 14.9609 17.5C14.7422 17.7891 14.4727 18.0469 14.1523 18.2734C13.8398 18.4922 13.4766 18.668 13.0625 18.8008C12.6484 18.9336 12.1836 19 11.668 19H0.5V15.9531H11.668C12.0508 15.9531 12.3438 15.8359 12.5469 15.6016C12.7578 15.3672 12.8633 15.0742 12.8633 14.7227V13.3633C12.8633 12.9648 12.7617 12.6602 12.5586 12.4492C12.3555 12.2383 12.0508 12.1328 11.6445 12.1328H4.77734C3.98828 12.1328 3.32031 11.9922 2.77344 11.7109C2.23438 11.4219 1.79688 11.0625 1.46094 10.6328C1.125 10.2031 0.878906 9.73828 0.722656 9.23828C0.574219 8.73828 0.5 8.27344 0.5 7.84375V2.19531H14.5391V5.24219H3.54688V7.84375C3.54688 8.25 3.65234 8.55469 3.86328 8.75781C4.07422 8.96094 4.37891 9.0625 4.77734 9.0625H11.668C12.0898 9.0625 12.5508 9.14062 13.0508 9.29688C13.5508 9.44531 14.0117 9.69141 14.4336 10.0352C14.8633 10.3711 15.2188 10.8125 15.5 11.3594C15.7891 11.9062 15.9336 12.5742 15.9336 13.3633V14.7227Z" fill="white"/>
<path d="M29.7617 19H26.7148V10.5977C26.7148 10.1992 26.6094 9.89844 26.3984 9.69531C26.1875 9.48438 25.875 9.37891 25.4609 9.37891H21.5V19H18.4531V7.84375C18.4531 7.63281 18.4922 7.4375 18.5703 7.25781C18.6484 7.07031 18.7578 6.91016 18.8984 6.77734C19.0391 6.63672 19.2031 6.52734 19.3906 6.44922C19.5781 6.37109 19.7773 6.33203 19.9883 6.33203H25.4844C25.9062 6.33203 26.3594 6.40625 26.8438 6.55469C27.3281 6.70312 27.7891 6.94141 28.2266 7.26953V6.33203H32.3516C32.6406 6.33203 32.9453 6.36719 33.2656 6.4375C33.5859 6.5 33.9023 6.60156 34.2148 6.74219C34.5352 6.88281 34.8398 7.06641 35.1289 7.29297C35.418 7.51172 35.6719 7.78125 35.8906 8.10156C36.1094 8.41406 36.2852 8.77734 36.418 9.19141C36.5508 9.60547 36.6172 10.0742 36.6172 10.5977V19H33.5703V10.5977C33.5703 10.1992 33.4688 9.89844 33.2656 9.69531C33.0703 9.48438 32.7656 9.37891 32.3516 9.37891H29.6094C29.7109 9.75391 29.7617 10.1602 29.7617 10.5977V19ZM53.0586 10.5273C53.0586 10.9492 52.9844 11.4062 52.8359 11.8984C52.6875 12.3828 52.4453 12.8359 52.1094 13.2578C51.7812 13.6719 51.3477 14.0195 50.8086 14.3008C50.2773 14.582 49.6289 14.7227 48.8633 14.7227H43.3672V11.8281H48.8633C49.2773 11.8281 49.5977 11.7031 49.8242 11.4531C50.0508 11.1953 50.1641 10.8789 50.1641 10.5039C50.1641 10.1055 50.0352 9.79297 49.7773 9.56641C49.5273 9.33984 49.2227 9.22656 48.8633 9.22656H43.3672C42.9531 9.22656 42.6328 9.35547 42.4062 9.61328C42.1797 9.86328 42.0664 10.1758 42.0664 10.5508V14.8047C42.0664 15.2109 42.1914 15.5273 42.4414 15.7539C42.6992 15.9805 43.0156 16.0938 43.3906 16.0938H48.8633V19H43.3672C42.9453 19 42.4883 18.9258 41.9961 18.7773C41.5117 18.6289 41.0586 18.3906 40.6367 18.0625C40.2227 17.7266 39.875 17.293 39.5938 16.7617C39.3125 16.2227 39.1719 15.5703 39.1719 14.8047V10.5273C39.1719 10.1055 39.2461 9.65234 39.3945 9.16797C39.543 8.67578 39.7812 8.22266 40.1094 7.80859C40.4453 7.38672 40.8789 7.03516 41.4102 6.75391C41.9492 6.47266 42.6016 6.33203 43.3672 6.33203H48.8633C49.2852 6.33203 49.7383 6.40625 50.2227 6.55469C50.7148 6.70312 51.168 6.94531 51.582 7.28125C52.0039 7.60938 52.3555 8.04297 52.6367 8.58203C52.918 9.11328 53.0586 9.76172 53.0586 10.5273ZM57.1367 17.4648C57.1367 17.6758 57.0938 17.875 57.0078 18.0625C56.9297 18.2422 56.8203 18.4023 56.6797 18.543C56.5469 18.6758 56.3867 18.7812 56.1992 18.8594C56.0195 18.9375 55.8281 18.9766 55.625 18.9766C55.4141 18.9766 55.2148 18.9375 55.0273 18.8594C54.8477 18.7812 54.6875 18.6758 54.5469 18.543C54.4141 18.4023 54.3086 18.2422 54.2305 18.0625C54.1523 17.875 54.1133 17.6758 54.1133 17.4648C54.1133 17.2617 54.1523 17.0703 54.2305 16.8906C54.3086 16.7031 54.4141 16.543 54.5469 16.4102C54.6875 16.2695 54.8477 16.1602 55.0273 16.082C55.2148 15.9961 55.4141 15.9531 55.625 15.9531C55.8281 15.9531 56.0195 15.9961 56.1992 16.082C56.3867 16.1602 56.5469 16.2695 56.6797 16.4102C56.8203 16.543 56.9297 16.7031 57.0078 16.8906C57.0938 17.0703 57.1367 17.2617 57.1367 17.4648ZM73.2969 14.7227C73.2969 15.2461 73.2305 15.7188 73.0977 16.1406C72.9648 16.5547 72.7891 16.9219 72.5703 17.2422C72.3516 17.5547 72.0977 17.8242 71.8086 18.0508C71.5195 18.2695 71.2148 18.4492 70.8945 18.5898C70.582 18.7305 70.2617 18.8359 69.9336 18.9062C69.6133 18.9688 69.3086 19 69.0195 19H63.5234C63.1016 19 62.6406 18.9258 62.1406 18.7773C61.6406 18.6289 61.1758 18.3867 60.7461 18.0508C60.3242 17.707 59.9688 17.2656 59.6797 16.7266C59.3984 16.1797 59.2578 15.5117 59.2578 14.7227V10.5977C59.2578 9.81641 59.3984 9.15625 59.6797 8.61719C59.9688 8.07031 60.3242 7.62891 60.7461 7.29297C61.1758 6.94922 61.6406 6.70312 62.1406 6.55469C62.6406 6.40625 63.1016 6.33203 63.5234 6.33203H69.0195C69.8008 6.33203 70.4648 6.47266 71.0117 6.75391C71.5586 7.03516 72 7.39062 72.3359 7.82031C72.6719 8.24219 72.9141 8.70312 73.0625 9.20312C73.2188 9.70312 73.2969 10.168 73.2969 10.5977V14.7227ZM70.25 10.6211C70.25 10.1992 70.1445 9.88672 69.9336 9.68359C69.7227 9.48047 69.418 9.37891 69.0195 9.37891H63.5469C63.1406 9.37891 62.832 9.48438 62.6211 9.69531C62.4102 9.89844 62.3047 10.1992 62.3047 10.5977V14.7227C62.3047 15.1211 62.4102 15.4258 62.6211 15.6367C62.832 15.8477 63.1406 15.9531 63.5469 15.9531H69.0195C69.4336 15.9531 69.7422 15.8477 69.9453 15.6367C70.1484 15.4258 70.25 15.1211 70.25 14.7227V10.6211ZM89.9375 19H86.8906V11.9688C86.8906 11.5703 86.8203 11.2148 86.6797 10.9023C86.5469 10.582 86.3633 10.3086 86.1289 10.082C85.8945 9.85547 85.6172 9.68359 85.2969 9.56641C84.9844 9.44141 84.6445 9.37891 84.2773 9.37891H78.9453V19H75.8984V7.84375C75.8984 7.63281 75.9375 7.4375 76.0156 7.25781C76.0938 7.07031 76.2031 6.91016 76.3438 6.77734C76.4844 6.63672 76.6484 6.52734 76.8359 6.44922C77.0234 6.37109 77.2227 6.33203 77.4336 6.33203H84.3008C84.6836 6.33203 85.0859 6.375 85.5078 6.46094C85.9375 6.54688 86.3594 6.6875 86.7734 6.88281C87.1953 7.07031 87.5938 7.3125 87.9688 7.60938C88.3516 7.89844 88.6875 8.25391 88.9766 8.67578C89.2734 9.08984 89.5078 9.57031 89.6797 10.1172C89.8516 10.6641 89.9375 11.2812 89.9375 11.9688V19ZM98.1758 19H96.8164C96.3789 19 95.9102 18.9258 95.4102 18.7773C94.918 18.6289 94.457 18.3867 94.0273 18.0508C93.5977 17.707 93.2422 17.2656 92.9609 16.7266C92.6797 16.1797 92.5391 15.5117 92.5391 14.7227V0.976562H95.5859V14.7227C95.5859 15.0977 95.7031 15.3984 95.9375 15.625C96.1719 15.8438 96.4648 15.9531 96.8164 15.9531H98.1758V19Z" fill="#650107"/>
</svg>
