<svg width="12" height="12" viewBox="0 0 12 12" fill="none" xmlns="http://www.w3.org/2000/svg">
<path d="M11.7577 10.584L9.22178 8.0477C9.83812 7.19038 10.177 6.16591 10.177 5.08752C10.177 3.72916 9.64816 2.45168 8.68632 1.49067C7.72655 0.530071 6.44824 0 5.08905 0C3.73028 0 2.45239 0.528826 1.49179 1.49067C0.531194 2.45085 0.00195312 3.72874 0.00195312 5.08752C0.00195312 6.44629 0.530779 7.72377 1.49179 8.68519C2.45239 9.64579 3.72987 10.1759 5.08905 10.1759C6.16703 10.1759 7.19067 9.83866 8.04882 9.22066L10.5847 11.7569C10.7473 11.9191 10.9588 12 11.1712 12C11.384 12 11.5959 11.9191 11.7577 11.7569C12.0816 11.4326 12.0816 10.9079 11.7577 10.584ZM2.66516 7.51182C2.0173 6.86396 1.66102 6.00249 1.66102 5.0871C1.66102 4.17171 2.0173 3.31107 2.66516 2.66321C3.31261 2.01535 4.17325 1.65865 5.08905 1.65865C6.00486 1.65865 6.86591 2.01535 7.51336 2.66321C8.16122 3.31107 8.51792 4.17213 8.51792 5.08752C8.51792 6.0029 8.16164 6.86396 7.51336 7.51224C6.86549 8.1601 6.00527 8.51597 5.08905 8.51597C4.17284 8.51597 3.31178 8.15927 2.66516 7.51182Z" fill="url(#paint0_linear_119_1187)"/>
<defs>
<linearGradient id="paint0_linear_119_1187" x1="6.00128" y1="0" x2="6.00128" y2="12" gradientUnits="userSpaceOnUse">
<stop stop-color="#FFF5F5"/>
<stop offset="1" stop-color="#FFE1E2"/>
</linearGradient>
</defs>
</svg>
